PathFileType	4	(X/Y/Z)	 s02c0302.trc
DataRate	CameraRate	NumFrames	NumMarkers	Units	OrigDataRate	OrigDataStartFrame	OrigNumFrames
200	200	6	51	mm	200	501	2000
Frame#	Time	racr			lacr			c7			jug			rlel			rdr			llel			ldr			s2			lic			ric			lasi			rasi			rpsi			lpsi			rgt			lgt			rth1			rth2			rth3			rth4			rlfc			rmfc			rsh1			rsh2			rsh3			rsh4			rlmal			rmmal			rcal			rtoe			rmt5			rmt1			lth1			lth2			lth4			lth3			llfc			lmfc			lsh1			lsh2			lsh3			lsh4			llmal			lmmal			lcal			ltoe			lmt5			SBIKE			LBIKE			RBIKE			
		X1	Y1	Z1	X2	Y2	Z2	X3	Y3	Z3	X4	Y4	Z4	X5	Y5	Z5	X6	Y6	Z6	X7	Y7	Z7	X8	Y8	Z8	X9	Y9	Z9	X10	Y10	Z10	X11	Y11	Z11	X12	Y12	Z12	X13	Y13	Z13	X14	Y14	Z14	X15	Y15	Z15	X16	Y16	Z16	X17	Y17	Z17	X18	Y18	Z18	X19	Y19	Z19	X20	Y20	Z20	X21	Y21	Z21	X22	Y22	Z22	X23	Y23	Z23	X24	Y24	Z24	X25	Y25	Z25	X26	Y26	Z26	X27	Y27	Z27	X28	Y28	Z28	X29	Y29	Z29	X30	Y30	Z30	X31	Y31	Z31	X32	Y32	Z32	X33	Y33	Z33	X34	Y34	Z34	X35	Y35	Z35	X36	Y36	Z36	X37	Y37	Z37	X38	Y38	Z38	X39	Y39	Z39	X40	Y40	Z40	X41	Y41	Z41	X42	Y42	Z42	X43	Y43	Z43	X44	Y44	Z44	X45	Y45	Z45	X46	Y46	Z46	X47	Y47	Z47	X48	Y48	Z48	X49	Y49	Z49	X50	Y50	Z50	X51	Y51	Z51	
501	2.5050	491.456257	1282.254227	-120.524992	507.239890	1283.446144	-467.250614	516.775155	1311.205581	-297.443833	457.386946	1184.663243	-295.522681	609.078933	1039.026640	-102.135559	736.161565	846.574021	-125.309864	584.913334	1024.160518	-527.480921	726.078597	841.914080	-474.015853	-3.017122	1119.359352	-323.991481	143.940773	1090.744634	-455.641663	119.455242	1106.636952	-173.141096	187.247999	1051.474797	-428.562484	171.011927	1082.354502	-201.497881	13.438117	1149.014046	-282.439568	33.127997	1150.248763	-372.012496	85.672757	1046.752439	-128.703430	83.893081	1007.138628	-493.628404	174.414168	1020.845413	-124.277137	261.959661	1010.255898	-131.273276	333.377404	969.838673	-105.795819	272.051880	1032.062528	-160.759396	455.536634	881.562676	-139.090226	452.449837	861.823291	-250.606379	444.866110	768.530072	-124.084399	434.343685	681.002736	-144.333485	389.789179	608.341563	-139.110545	450.470857	679.669767	-179.845982	341.248186	500.171454	-146.859659	350.569900	520.578306	-226.347446	266.648287	454.754387	-191.773788	550.272323	430.520540	-185.504554	440.463394	419.485352	-128.765584	469.092771	432.842619	-236.192556	190.542200	912.430657	-506.543755	261.487341	862.000977	-501.900469	285.853946	882.382187	-483.299592	296.542519	779.973266	-501.548575	352.729321	696.379459	-477.032851	351.524679	667.562029	-370.743240	304.201253	604.528627	-496.552371	272.009908	525.670900	-480.787753	202.406797	468.574403	-485.785632	288.142939	517.193982	-444.291767	128.172865	397.206089	-470.603343	142.052376	384.438155	-394.241817	50.371576	393.689311	-430.877400	255.840094	193.998980	-439.648872	161.101846	247.604250	-499.952005	-126.772713	872.049191	-308.286949	37.157571	86.618642	-514.276034	33.847549	82.886298	-114.380182	
502	2.5100	491.578003	1282.344161	-120.590831	507.287437	1283.517600	-467.283149	516.725774	1311.366473	-297.477380	457.416270	1184.713137	-295.578279	609.147085	1039.076994	-102.238789	736.158284	846.594805	-125.287219	584.917250	1024.173384	-527.552386	726.059079	841.945600	-474.041817	-3.083999	1119.361915	-323.943011	143.941647	1090.704485	-455.643207	119.472875	1106.611162	-173.167133	187.267382	1051.435781	-428.572425	171.021933	1082.321437	-201.485990	13.430006	1148.999299	-282.413733	33.289572	1150.335231	-372.069296	85.664638	1046.791397	-128.698395	83.924563	1007.120149	-493.632162	174.425621	1020.883187	-124.271250	261.956066	1010.305713	-131.286054	333.395626	969.890247	-105.836302	272.028732	1032.126682	-160.751796	455.556114	881.638336	-139.115958	452.467799	861.899243	-250.642453	444.520414	768.667788	-124.392069	434.337233	681.081007	-144.335581	389.817738	608.430684	-139.114463	450.490323	679.727559	-179.864638	341.283840	500.287815	-146.851586	350.633700	520.656123	-226.340589	266.689234	454.840596	-191.772221	550.282263	430.524054	-185.500247	440.489244	419.499510	-128.751831	469.090002	432.848665	-236.185584	190.608691	912.427147	-506.504221	261.532402	861.980852	-501.858659	285.903271	882.350146	-483.258721	296.576843	779.932617	-501.537862	352.716882	696.319768	-477.027474	351.527435	667.496537	-370.744247	304.156209	604.494046	-496.553498	271.986126	525.638886	-480.800218	202.347747	468.501532	-485.723315	288.070612	517.246039	-444.171872	128.133656	397.162293	-470.598505	142.020044	384.431699	-394.254945	50.324116	393.625156	-430.879369	255.863917	194.009271	-439.635462	161.102300	247.584044	-499.952250	-126.768907	872.051678	-308.279482	37.154537	86.601235	-514.261963	33.854949	82.954519	-114.410123	
503	2.5150	491.704234	1282.440812	-120.650469	507.342311	1283.577019	-467.308596	516.700438	1311.528440	-297.621966	457.450266	1184.751141	-295.577930	609.181779	1039.108299	-102.288755	736.170242	846.622849	-125.297265	584.893132	1024.148665	-527.637409	726.078880	841.942176	-474.051636	-3.110927	1119.338254	-323.947560	143.963656	1090.665332	-455.629772	119.489925	1106.603679	-173.179560	187.292643	1051.409025	-428.565870	171.030812	1082.300463	-201.466274	13.385796	1148.984005	-282.400880	33.246548	1150.327998	-372.052771	85.668290	1046.807321	-128.701226	83.966093	1007.081853	-493.619928	174.445729	1020.912162	-124.268647	261.946632	1010.334227	-131.309386	333.391299	969.969527	-105.864753	272.032534	1032.160159	-160.791683	455.583353	881.744986	-139.108125	452.500421	861.986788	-250.655017	444.531886	768.738398	-124.404599	434.342454	681.148990	-144.327294	389.860262	608.518085	-139.099233	450.567740	679.780928	-179.815551	341.329030	500.360901	-146.843962	350.712097	520.729577	-226.331627	266.730041	454.945493	-191.776966	550.297757	430.495082	-185.490531	440.508353	419.550343	-128.770721	469.116135	432.863778	-236.202389	190.661758	912.412411	-506.467645	261.568880	861.935637	-501.837328	285.951273	882.295904	-483.228640	296.565228	779.865073	-501.514453	352.547741	696.037438	-476.594401	351.538055	667.416680	-370.763386	304.101127	604.450140	-496.538298	271.922274	525.587937	-480.782358	202.263931	468.494930	-485.702222	288.008447	517.187947	-444.157612	128.049624	397.119014	-470.613757	141.949044	384.426310	-394.252291	50.237337	393.552676	-430.865940	255.873732	194.065498	-439.643516	161.099522	247.550696	-499.948266	-126.773661	872.062177	-308.289174	37.157308	86.603130	-514.280665	33.510257	83.169164	-114.563639	
504	2.5200	491.832185	1282.534353	-120.696072	507.417637	1283.651468	-467.320005	516.649170	1311.703888	-297.680913	457.493434	1184.794229	-295.616929	609.207563	1039.131607	-102.326237	736.175394	846.647557	-125.246324	584.872576	1024.138974	-527.714816	726.065055	841.947686	-474.051330	-3.079183	1119.463925	-323.987804	143.961134	1090.630711	-455.652459	119.443552	1106.582240	-173.189235	187.301884	1051.296897	-428.497364	171.035071	1082.255422	-201.465063	13.377656	1148.960466	-282.421577	33.224846	1150.300656	-372.064991	85.660639	1046.819240	-128.700905	84.116163	1007.007148	-493.394942	174.448508	1020.954619	-124.262808	261.952367	1010.377326	-131.330899	333.409352	970.033941	-105.880048	272.020174	1032.195391	-160.814966	455.594040	881.810446	-139.132678	452.517959	862.050544	-250.691558	444.926282	768.785033	-124.138629	434.381919	681.234224	-144.328100	389.899882	608.594578	-139.074644	450.605756	679.851814	-179.809355	341.427222	500.405930	-146.849698	350.755386	520.800112	-226.335242	266.776102	455.073002	-191.758027	550.329633	430.461882	-185.499097	440.524892	419.549680	-128.782543	469.150435	432.857774	-236.187061	190.711609	912.390861	-506.439527	261.593534	861.881294	-501.798549	285.974287	882.223167	-483.196177	296.585620	779.786992	-501.498037	352.680002	696.144661	-476.961221	351.533821	667.386640	-370.783610	304.044866	604.399305	-496.540076	271.832912	525.557158	-480.786092	202.156316	468.458981	-485.704952	287.920256	517.147638	-444.169991	127.903136	397.095402	-470.595323	141.813736	384.412201	-394.248313	50.088396	393.471975	-430.873923	255.886874	194.171570	-439.645413	161.096595	247.641929	-500.010504	-126.768865	872.049155	-308.281614	37.154119	86.603966	-514.263531	33.512263	83.160519	-114.554208	
505	2.5250	491.969684	1282.606817	-120.750030	507.476498	1283.720490	-467.338750	516.635491	1311.875425	-297.757303	457.547933	1184.824409	-295.646595	609.204497	1039.132262	-102.318113	736.174093	846.682725	-125.214594	584.821609	1024.127475	-527.813894	726.056423	841.960457	-474.059957	-3.112322	1119.410122	-323.984038	143.978869	1090.588245	-455.663528	119.434840	1106.575239	-173.202931	187.328145	1051.259507	-428.494785	171.045228	1082.233502	-201.449464	13.355091	1148.932686	-282.435017	33.202625	1150.303319	-372.076245	85.656038	1046.826879	-128.715050	84.164499	1006.955894	-493.401821	174.449747	1020.992562	-124.277371	261.968705	1010.407361	-131.354757	333.423441	970.079451	-105.922520	272.029337	1032.228360	-160.833434	455.657763	881.880774	-139.175214	452.553552	862.089557	-250.709264	444.967837	768.829032	-124.146834	434.451246	681.286913	-144.317445	389.968863	608.722035	-139.110820	450.665554	679.919275	-179.822457	341.491537	500.467268	-146.823563	350.836968	520.847515	-226.329453	266.816049	455.191742	-191.678847	550.369086	430.377097	-185.479977	440.564659	419.565651	-128.765464	469.182989	432.837625	-236.189622	190.749946	912.328424	-506.397418	261.538227	861.867873	-501.648871	285.918507	882.187381	-482.978022	296.560887	779.693974	-501.476613	352.641339	696.060807	-476.936219	351.500357	667.173733	-370.745854	303.965262	604.317582	-496.506349	271.720859	525.510676	-480.781625	202.012609	468.440087	-485.696785	287.785963	517.087026	-444.167878	127.704067	397.114413	-470.578167	141.579260	384.392602	-394.209289	49.919593	393.387413	-430.877079	255.881739	194.317248	-439.650061	161.039801	247.648296	-499.995180	-126.770814	872.049076	-308.290219	37.146735	86.598816	-514.259893	33.505408	83.149201	-114.552742	
506	2.5300	492.137563	1282.700543	-120.787101	507.577107	1283.779382	-467.334520	516.620607	1312.071556	-297.868802	457.558397	1184.911901	-295.740831	609.181767	1039.086748	-102.266550	736.190274	846.712511	-125.168165	584.751008	1024.092756	-527.919906	726.068230	842.018714	-474.139071	-3.138073	1119.392204	-323.990079	143.999266	1090.555425	-455.666290	119.445228	1106.552072	-173.196865	187.365859	1051.190680	-428.449264	171.064493	1082.207360	-201.433124	13.347495	1148.897721	-282.449654	33.158307	1150.276855	-372.099318	85.657027	1046.818653	-128.735286	84.206644	1006.916612	-493.409892	174.464843	1021.001394	-124.295226	261.967301	1010.432139	-131.381676	333.421708	970.115589	-105.935763	272.048215	1032.242771	-160.874763	455.654381	881.940461	-139.177946	452.564260	862.121083	-250.727028	444.990321	768.891156	-124.162126	434.488511	681.388445	-144.310483	390.027125	608.757205	-139.105429	450.722332	679.964842	-179.803180	341.582914	500.489070	-146.840888	350.921871	520.878004	-226.334013	266.881216	455.304248	-191.690278	550.412970	430.312113	-185.488984	440.602895	419.553287	-128.778995	469.228895	432.828732	-236.191400	190.784683	912.275892	-506.390700	261.532518	861.745661	-501.651092	285.937784	882.090562	-482.959065	296.522660	779.594193	-501.461862	352.582705	695.965079	-476.912140	351.415167	667.124202	-370.702003	303.869349	604.264595	-496.477251	271.577248	525.440883	-480.735596	201.846183	468.420202	-485.688270	287.630518	517.024076	-444.135377	127.513272	397.089570	-470.569315	141.400794	384.381907	-394.191859	49.720963	393.288524	-430.873029	255.875055	194.457438	-439.616248	160.983082	247.686806	-499.977488	-126.765178	872.045752	-308.292784	37.148941	86.597309	-514.277576	33.860885	82.960037	-114.413220	
